<svg xmlns="http://www.w3.org/2000/svg" width="128.466" height="28.654" viewBox="0 0 128.466 28.654">
  <g id="Grey_Red_Logo" data-name="Grey Red Logo" transform="translate(0 0.006)">
    <path id="Path_1" data-name="Path 1" d="M6.808,28.156V6.272H0V.315H19.54V6.288h-6.78V28.173H6.808Z" transform="translate(0 0.089)" fill="#eeedf2"/>
    <path id="Path_2" data-name="Path 2" d="M11.891,23.217v-5.01H16.9v5.01Z" transform="translate(3.283 5.028)" fill="#eeedf2"/>
    <path id="Path_3" data-name="Path 3" d="M42.966.315V28.156H36.993V.315Z" transform="translate(10.213 0.089)" fill="#eeedf2"/>
    <path id="Path_4" data-name="Path 4" d="M69.778,19.141A14.586,14.586,0,0,1,67,24.054a13.23,13.23,0,0,1-4.383,3.356,12.069,12.069,0,0,1-5.379,1.237,12.324,12.324,0,0,1-6.664-1.927,13.93,13.93,0,0,1-4.881-5.232,14.366,14.366,0,0,1-1.83-7.161A14.843,14.843,0,0,1,45.65,7.165a13.878,13.878,0,0,1,4.892-5.251A12.454,12.454,0,0,1,57.254,0,12.069,12.069,0,0,1,62.6,1.22a13.541,13.541,0,0,1,4.432,3.4A14.073,14.073,0,0,1,69.811,9.6H63.293a8.561,8.561,0,0,0-2.666-2.649,6.427,6.427,0,0,0-7.064.161,7.985,7.985,0,0,0-2.68,3.051,8.8,8.8,0,0,0-1,4.174,8.91,8.91,0,0,0,1,4.142,8.188,8.188,0,0,0,2.7,3.063,6.44,6.44,0,0,0,7.018.225,8.187,8.187,0,0,0,2.649-2.6h6.535Z" transform="translate(12.109 0.002)" fill="#eeedf2"/>
    <path id="Path_5" data-name="Path 5" d="M89.059,28.156H81.53L70.8,14.236,81.527.315h7.529L78.314,14.236Z" transform="translate(19.546 0.089)" fill="#eeedf2"/>
    <rect id="Rectangle_1" data-name="Rectangle 1" width="6.005" height="27.841" transform="translate(84.343 0.404)" fill="#eeedf2"/>
    <path id="Path_6" data-name="Path 6" d="M100.7,13.329a9.277,9.277,0,0,1,3.132,3.019,7.3,7.3,0,0,1,1.14,3.9,7.2,7.2,0,0,1-1.332,4.159A9.433,9.433,0,0,1,100,27.492a11.324,11.324,0,0,1-5.01,1.156,11.573,11.573,0,0,1-4.64-.932,8.617,8.617,0,0,1-3.644-3,9.315,9.315,0,0,1-1.59-5.732h6.327A3.553,3.553,0,0,0,92.5,21.743a3.5,3.5,0,0,0,2.488.98,3.941,3.941,0,0,0,2.408-.739,2.118,2.118,0,0,0,1.012-1.734,2.263,2.263,0,0,0-1.268-1.914l-7.161-4.254A8.467,8.467,0,0,1,87.118,11.3a6.592,6.592,0,0,1-1.027-3.549,6.77,6.77,0,0,1,1.22-3.9,8.33,8.33,0,0,1,3.356-2.826A10.364,10.364,0,0,1,95.243,0a9.574,9.574,0,0,1,4.9,1.173,7.733,7.733,0,0,1,3.063,3.19,9.178,9.178,0,0,1,1,4.223H98.193a2.486,2.486,0,0,0-.8-1.895,3.023,3.023,0,0,0-2.151-.739,3.133,3.133,0,0,0-1.815.51,1.5,1.5,0,0,0-.739,1.268,1.518,1.518,0,0,0,.883,1.317Z" transform="translate(23.493 0)" fill="#eeedf2"/>
    <path id="Path_7" data-name="Path 7" d="M24.34,17.7h-.674V28.152H17.7V.327H27.739a7.941,7.941,0,0,1,3.276.69,9.266,9.266,0,0,1,2.842,2.007A9.025,9.025,0,0,1,35.7,5.93a8.849,8.849,0,0,1,.658,3.291,8.309,8.309,0,0,1-1.285,4.48,9.351,9.351,0,0,1-3.934,3.083l8.783,11.367H32.411Zm3.4-6.005a2.594,2.594,0,0,0,2.681-2.5c0-.069,0-.139,0-.208a2.587,2.587,0,0,0-2.477-2.7c-.068,0-.135,0-.2,0H23.661v5.411Z" transform="translate(4.888 0.092)" fill="#eeedf2"/>
  </g>
</svg>
